<?xml version="1.0" encoding="utf-8"?>
<!-- Generator: Adobe Illustrator 16.0.0, SVG Export Plug-In . SVG Version: 6.00 Build 0)  -->
<!DOCTYPE svg PUBLIC "-//W3C//DTD SVG 1.1//EN" "http://www.w3.org/Graphics/SVG/1.1/DTD/svg11.dtd">
<svg version="1.1" id="Layer_1" xmlns="http://www.w3.org/2000/svg" xmlns:xlink="http://www.w3.org/1999/xlink" x="0px" y="0px"
	 width="612px" height="308.984px" viewBox="0 0 612 308.984" enable-background="new 0 0 612 308.984" xml:space="preserve">
<g>
	<g>
		<g>
			<path fill="#76298F" d="M52.117,114.426c-0.067,13.485-1.126,24.945-2.615,29.909h31.406c-1.488-4.963-2.547-16.424-2.615-29.909
				H52.117z"/>
			<path fill="#76298F" d="M78.293,110.865c0.068-13.485,1.126-24.945,2.615-29.908H49.502c1.488,4.963,2.547,16.423,2.615,29.908
				H78.293z"/>
		</g>
		<g>
			<path fill="#76298F" d="M117.18,185.284c-13.485-0.068-24.945-1.127-29.909-2.615v31.406c4.963-1.488,16.423-2.548,29.908-2.615
				L117.18,185.284z"/>
			<path fill="#76298F" d="M120.74,211.46c13.485,0.067,24.945,1.127,29.908,2.615v-31.406c-4.963,1.488-16.423,2.547-29.908,2.615
				V211.46z"/>
		</g>
		<g>
			<path fill="#76298F" d="M52.117,184.167c-0.067,13.484-1.126,24.944-2.615,29.908h31.406c-1.488-4.964-2.547-16.424-2.615-29.908
				H52.117z"/>
			<path fill="#76298F" d="M78.293,180.606c0.068-13.485,1.126-24.945,2.615-29.908H49.502c1.488,4.963,2.547,16.423,2.615,29.908
				H78.293z"/>
		</g>
	</g>
	<g>
		<path fill="#76298F" d="M160.648,144.158h11.819v12.199h-11.819V144.158z M160.934,166.894h11.25v45.995h-11.25V166.894z"/>
		<path fill="#76298F" d="M229,189.108c0,4.146-0.602,7.816-1.804,11.012c-1.203,3.197-2.777,5.822-4.723,7.879
			c-1.946,2.058-4.138,3.585-6.574,4.581c-2.437,0.997-4.889,1.495-7.357,1.495c-1.741,0-3.307-0.214-4.699-0.641
			c-1.393-0.427-2.611-0.956-3.655-1.591c-1.044-0.632-1.922-1.297-2.635-1.992c-0.712-0.696-1.274-1.313-1.685-1.853h-0.19
			l-1.092,4.89h-9.303c0.063-1.36,0.119-3.045,0.166-5.056c0.047-2.009,0.071-3.916,0.071-5.719v-57.957h11.25v19.128
			c0,1.361-0.008,2.619-0.024,3.773c-0.017,1.156-0.04,2.05-0.071,2.682h0.095c0.728-0.506,1.519-0.996,2.373-1.471
			s1.788-0.902,2.8-1.281c1.013-0.381,2.104-0.681,3.275-0.902c1.17-0.221,2.404-0.332,3.702-0.332c2.563,0,5.055,0.467,7.476,1.4
			s4.572,2.357,6.456,4.271c1.882,1.915,3.377,4.367,4.485,7.357C228.446,181.774,229,185.216,229,189.108z M217.371,189.678
			c0-2.88-0.349-5.355-1.044-7.429c-0.696-2.072-1.606-3.654-2.729-4.746c-1.124-1.092-2.295-1.828-3.513-2.207
			c-1.218-0.381-2.429-0.57-3.631-0.57c-1.646,0-3.323,0.332-5.032,0.997c-1.708,0.665-3.259,1.551-4.651,2.658v22.024
			c0.442,0.506,0.988,1.037,1.637,1.59c0.648,0.555,1.376,1.061,2.184,1.52s1.685,0.838,2.634,1.139s1.962,0.451,3.038,0.451
			c1.834,0,3.441-0.372,4.818-1.115c1.376-0.744,2.531-1.796,3.465-3.157c0.933-1.36,1.638-2.981,2.112-4.865
			C217.133,194.085,217.371,191.987,217.371,189.678z"/>
		<path fill="#76298F" d="M262.654,205.009c2.184,0,4.461-0.221,6.834-0.664s4.777-1.075,7.215-1.898v8.971
			c-1.455,0.634-3.686,1.234-6.691,1.804c-3.008,0.57-6.124,0.854-9.352,0.854c-3.259,0-6.353-0.419-9.279-1.258
			c-2.927-0.838-5.482-2.19-7.666-4.058c-2.183-1.867-3.916-4.288-5.197-7.263s-1.922-6.582-1.922-10.822
			c0-4.178,0.601-7.832,1.804-10.965c1.202-3.133,2.816-5.727,4.841-7.785c2.025-2.057,4.343-3.599,6.954-4.627
			c2.61-1.028,5.308-1.543,8.093-1.543c2.911,0,5.593,0.443,8.046,1.329c2.451,0.886,4.572,2.278,6.361,4.177
			c1.787,1.898,3.18,4.344,4.176,7.334c0.998,2.99,1.496,6.526,1.496,10.608c-0.031,1.583-0.08,2.927-0.143,4.034h-30.141
			c0.158,2.121,0.633,3.933,1.424,5.436c0.791,1.503,1.828,2.722,3.109,3.654c1.281,0.934,2.776,1.614,4.485,2.041
			C258.809,204.796,260.66,205.009,262.654,205.009z M258.144,174.536c-1.424,0-2.689,0.261-3.797,0.783
			c-1.108,0.521-2.065,1.234-2.872,2.136c-0.807,0.901-1.447,1.954-1.922,3.157c-0.475,1.202-0.791,2.484-0.949,3.844h18.084
			c0-1.359-0.182-2.642-0.545-3.844c-0.364-1.203-0.901-2.256-1.613-3.157s-1.599-1.614-2.658-2.136
			C260.81,174.797,259.568,174.536,258.144,174.536z"/>
		<path fill="#76298F" d="M289.283,212.889v-68.731h11.248v68.731H289.283z"/>
		<path fill="#76298F" d="M337.033,205.009c2.184,0,4.463-0.221,6.836-0.664s4.777-1.075,7.215-1.898v8.971
			c-1.457,0.634-3.688,1.234-6.693,1.804c-3.006,0.57-6.123,0.854-9.352,0.854c-3.258,0-6.352-0.419-9.279-1.258
			c-2.928-0.838-5.482-2.19-7.666-4.058s-3.916-4.288-5.197-7.263s-1.922-6.582-1.922-10.822c0-4.178,0.602-7.832,1.803-10.965
			c1.203-3.133,2.816-5.727,4.842-7.785c2.025-2.057,4.344-3.599,6.955-4.627c2.609-1.028,5.307-1.543,8.092-1.543
			c2.912,0,5.594,0.443,8.047,1.329c2.451,0.886,4.572,2.278,6.359,4.177s3.18,4.344,4.178,7.334
			c0.996,2.99,1.494,6.526,1.494,10.608c-0.031,1.583-0.078,2.927-0.143,4.034h-30.141c0.158,2.121,0.633,3.933,1.424,5.436
			s1.828,2.722,3.109,3.654c1.281,0.934,2.777,1.614,4.486,2.041C333.189,204.796,335.039,205.009,337.033,205.009z
			 M332.523,174.536c-1.424,0-2.689,0.261-3.797,0.783c-1.107,0.521-2.064,1.234-2.871,2.136s-1.447,1.954-1.922,3.157
			c-0.475,1.202-0.793,2.484-0.949,3.844h18.084c0-1.359-0.184-2.642-0.547-3.844c-0.363-1.203-0.9-2.256-1.613-3.157
			c-0.711-0.901-1.598-1.614-2.658-2.136C335.189,174.797,333.947,174.536,332.523,174.536z"/>
		<path fill="#76298F" d="M396.318,211.893c-1.424,0.601-3.164,1.115-5.221,1.542c-2.059,0.427-4.225,0.641-6.504,0.641
			c-3.322,0-6.424-0.475-9.303-1.424c-2.881-0.949-5.396-2.389-7.547-4.319c-2.152-1.93-3.846-4.374-5.08-7.333
			s-1.852-6.416-1.852-10.372c0-4.43,0.713-8.228,2.137-11.392s3.268-5.735,5.529-7.713c2.264-1.979,4.811-3.434,7.643-4.367
			s5.625-1.4,8.379-1.4c2.057,0,4.033,0.182,5.932,0.546s3.623,0.862,5.174,1.495v9.16c-1.393-0.6-2.871-1.083-4.438-1.447
			c-1.566-0.363-3.252-0.545-5.055-0.545c-1.805,0-3.529,0.277-5.174,0.83c-1.646,0.554-3.102,1.432-4.367,2.635
			s-2.271,2.793-3.014,4.77c-0.744,1.979-1.115,4.359-1.115,7.145c0,2.025,0.283,3.932,0.854,5.719
			c0.57,1.789,1.4,3.315,2.492,4.581s2.484,2.286,4.178,3.062c1.691,0.775,3.693,1.162,6.004,1.162c2.057,0,3.924-0.205,5.602-0.616
			c1.676-0.411,3.258-0.917,4.746-1.519V211.893z"/>
		<path fill="#76298F" d="M434.148,212.842c-1.266,0.379-2.775,0.68-4.533,0.901c-1.756,0.221-3.393,0.332-4.912,0.332
			c-3.861,0-7.018-0.625-9.469-1.875c-2.453-1.249-4.186-3.045-5.197-5.387c-0.729-1.678-1.092-3.955-1.092-6.836v-23.828h-8.592
			v-9.256h8.592V154.03h11.248v12.863h13.291v9.256h-13.291v22.357c0,1.771,0.27,3.085,0.807,3.939
			c0.951,1.455,2.832,2.184,5.648,2.184c1.299,0,2.588-0.103,3.869-0.309c1.281-0.205,2.492-0.467,3.631-0.783V212.842z"/>
		<path fill="#76298F" d="M442.93,144.158h11.818v12.199H442.93V144.158z M443.215,166.894h11.25v45.995h-11.25V166.894z"/>
		<path fill="#76298F" d="M510.949,189.915c0,3.607-0.539,6.898-1.613,9.873c-1.076,2.975-2.619,5.522-4.629,7.643
			s-4.438,3.757-7.285,4.912c-2.85,1.155-6.029,1.732-9.541,1.732c-3.607,0-6.844-0.577-9.707-1.732
			c-2.865-1.155-5.293-2.792-7.287-4.912c-1.992-2.12-3.52-4.668-4.58-7.643s-1.59-6.266-1.59-9.873s0.537-6.898,1.613-9.873
			s2.619-5.521,4.629-7.643c2.008-2.119,4.438-3.757,7.285-4.912c2.848-1.154,6.029-1.732,9.541-1.732
			c3.607,0,6.842,0.578,9.707,1.732c2.863,1.155,5.293,2.793,7.285,4.912c1.994,2.121,3.521,4.668,4.582,7.643
			C510.418,183.017,510.949,186.308,510.949,189.915z M499.32,189.915c0-2.437-0.285-4.588-0.855-6.455
			c-0.568-1.867-1.361-3.434-2.373-4.699c-1.014-1.266-2.23-2.215-3.654-2.848s-2.975-0.949-4.652-0.949
			c-1.646,0-3.172,0.316-4.58,0.949s-2.619,1.582-3.631,2.848c-1.014,1.266-1.805,2.832-2.373,4.699
			c-0.57,1.867-0.855,4.019-0.855,6.455c0,2.438,0.285,4.589,0.855,6.455c0.568,1.867,1.367,3.426,2.396,4.676
			c1.027,1.25,2.246,2.199,3.654,2.848c1.408,0.649,2.951,0.973,4.629,0.973c1.676,0,3.211-0.323,4.604-0.973
			c1.393-0.648,2.594-1.598,3.607-2.848c1.012-1.25,1.805-2.809,2.373-4.676C499.035,194.504,499.32,192.353,499.32,189.915z"/>
		<path fill="#76298F" d="M531.266,173.302h0.189c0.664-0.949,1.502-1.883,2.516-2.801c1.012-0.917,2.166-1.725,3.465-2.42
			c1.297-0.696,2.729-1.258,4.295-1.686s3.236-0.641,5.008-0.641c1.678,0,3.299,0.189,4.865,0.569s2.998,0.974,4.297,1.78
			c1.297,0.807,2.443,1.852,3.441,3.133c0.996,1.281,1.779,2.809,2.35,4.58c0.314,0.981,0.529,2.049,0.641,3.204
			c0.109,1.155,0.166,2.492,0.166,4.011v29.856h-11.25v-28.101c0-1.233-0.047-2.293-0.143-3.18c-0.094-0.885-0.27-1.661-0.521-2.326
			c-0.57-1.455-1.432-2.499-2.588-3.133c-1.154-0.633-2.555-0.949-4.199-0.949c-2.184,0-4.281,0.516-6.291,1.543
			c-2.01,1.029-3.789,2.523-5.34,4.485v31.66h-11.248v-45.995h9.303L531.266,173.302z"/>
	</g>
</g>
</svg>
